<svg width="1068" height="935" viewBox="0 0 1068 935" fill="none" xmlns="http://www.w3.org/2000/svg">
<path d="M1067.56 478.871C1067.56 481.871 1067.56 481.871 1066.22 483.477C1065.29 484.33 1065.29 484.33 1064.35 485.199C1063.66 485.835 1062.97 486.47 1062.27 487.125C1061.54 487.784 1060.81 488.442 1060.06 489.121C1059.37 489.764 1058.67 490.407 1057.96 491.07C1020.6 525.449 979.739 546.019 928.151 544.078C904.322 542.702 881.608 536.068 858.811 529.48C857.755 529.176 856.7 528.872 855.612 528.558C850.313 527.031 845.016 525.494 839.727 523.934C794.902 510.834 743.529 501.478 700.346 524.711C680.536 535.819 664.908 551.938 652.565 570.871C651.932 571.818 651.299 572.766 650.647 573.742C637.206 594.611 628.235 617.737 619.565 640.871C619.124 642.041 618.684 643.211 618.23 644.416C613.146 658.014 608.627 671.746 604.308 685.601C593.573 720.014 581.75 754.144 566.565 786.871C566.024 788.045 565.483 789.219 564.925 790.429C555.721 810.297 545.849 829.411 532.565 846.871C532.127 847.452 531.689 848.033 531.237 848.631C525.509 856.195 519.48 863.343 512.975 870.25C510.554 872.819 510.554 872.819 508.475 875.508C506.743 877.651 505.04 879.351 502.94 881.121C499.911 883.7 496.976 886.348 494.065 889.058C469.192 911.418 440.317 924.95 408.002 932.871C406.673 933.201 406.673 933.201 405.316 933.538C404.489 933.73 403.663 933.923 402.811 934.121C401.723 934.376 401.723 934.376 400.614 934.637C398.341 934.897 396.733 934.554 394.565 933.871C395.646 933.505 396.728 933.139 397.842 932.762C440 918.086 478.876 893.058 505.565 856.871C506.05 856.215 506.534 855.558 507.034 854.882C514.826 844.252 521.959 833.275 528.565 821.871C529.138 820.883 529.138 820.883 529.723 819.876C551.636 781.595 564.096 738.032 575.68 695.737C578.925 683.894 582.246 672.072 585.603 660.26C586.196 658.169 586.788 656.078 587.375 653.986C598.452 614.645 614.705 574.575 639.565 541.871C640.667 540.403 640.667 540.403 641.792 538.906C650.655 527.602 661.162 516.272 673.565 508.871C674.666 508.207 675.767 507.543 676.901 506.859C718.139 482.439 762.323 483.928 807.62 495.363C823.218 499.44 838.385 504.398 853.565 509.808C866.821 514.511 880.083 519.129 893.522 523.285C894.572 523.611 895.622 523.937 896.704 524.273C924.518 532.754 957.307 536.713 985.565 527.871C986.609 527.565 986.609 527.565 987.673 527.254C1017.86 518.3 1043.37 498.262 1067.56 478.871Z" fill="url(#paint0_radial_7_996)"/>
<path d="M867.982 484.604C910.116 504.401 954.811 521.422 1001.07 505.225C1016.3 499.59 1030.08 491.584 1043.11 481.916C1043.77 482.246 1044.43 482.576 1045.11 482.916C1014.37 507.323 978.719 521.481 939.005 517.452C905.582 513.461 873.619 500.86 842.232 489.291C790.821 470.35 731.875 448.947 678.407 473.138C663.603 480.246 651.044 488.604 639.107 499.916C638.295 500.676 637.483 501.435 636.646 502.217C620.079 518.183 607.64 538.085 598.107 558.916C597.804 559.563 597.501 560.209 597.189 560.875C584.227 588.796 576.464 619.224 567.963 648.695C556.027 690.069 543.736 731.98 525.107 770.916C524.686 771.804 524.265 772.691 523.832 773.605C500.982 821.462 466.976 865.857 415.39 884.203C385.757 894.23 385.757 894.23 372.107 893.916C375.02 891.003 378.584 890.709 382.482 889.791C398.401 885.802 413.221 879.665 427.107 870.916C428.142 870.268 429.177 869.62 430.244 868.952C445.562 859.047 459.447 846.862 470.126 832.03C471.324 830.532 471.695 830.146 471.695 830.146L473.15 828.164C473.15 828.164 475.615 824.72 477.544 822.229C507.623 781.527 524.066 731.54 535.962 682.869C536.701 679.851 537.449 676.835 538.199 673.82C540.729 663.631 543.226 653.435 545.696 643.231C562.8 572.647 562.8 572.647 578.107 540.916C578.523 540.051 578.938 539.185 579.367 538.293C598.79 498.388 630.807 463.415 673.384 448.346C739.557 426.307 808.482 456.588 867.982 484.604Z" fill="url(#paint1_radial_7_996)"/>
<path d="M850.17 447.342C854.192 449.637 858.24 451.884 862.292 454.124C867.118 456.794 871.932 459.481 876.725 462.209C880.09 464.119 883.47 466.001 886.855 467.874C888.044 468.534 888.044 468.534 889.256 469.207C921.733 487.108 959.938 499.499 997.07 489.077C1004.6 486.682 1011.83 484.351 1018.48 479.999C1019.59 479.298 1020.71 478.597 1021.85 477.874C1022.84 478.204 1023.83 478.534 1024.85 478.874C997.489 495.188 966.079 502.384 934.436 494.563C906.009 486.975 879.029 474.718 853.207 460.723C846.982 457.364 840.599 454.379 834.167 451.437C832.942 450.873 831.716 450.31 830.491 449.746C828.063 448.631 825.633 447.519 823.203 446.408C820.278 445.068 817.36 443.715 814.445 442.355C764.311 419.122 706.706 404.838 652.781 423.218C619.801 435.624 594.551 462.593 574.855 490.874C574.453 491.451 574.051 492.028 573.637 492.622C571.154 496.253 568.941 500.006 566.855 503.874C566.452 504.619 566.05 505.364 565.635 506.132C542.041 550.701 533.503 603.517 522.249 652.27C511.653 698.083 499.242 747.465 470.855 785.874C470.088 786.924 469.321 787.973 468.531 789.054C462.785 796.782 456.525 803.928 449.855 810.874C449.332 811.428 448.81 811.982 448.271 812.553C443.929 817.052 439.264 820.764 434.167 824.374C432.971 825.224 432.971 825.224 431.751 826.092C410.547 841.019 382.342 853.743 355.855 852.874C355.855 852.544 355.855 852.214 355.855 851.874C357.102 851.655 358.348 851.436 359.632 851.21C397.625 844.252 429.383 824.5 451.855 792.874C485.323 744.031 497.649 683.935 508.72 626.859C517.311 582.585 526.416 536.995 547.855 496.874C548.47 495.715 549.085 494.557 549.718 493.363C564.234 467.006 585.469 441.6 609.855 423.874C610.384 423.485 610.913 423.096 611.458 422.695C685.527 368.821 779.726 406.921 850.17 447.342Z" fill="url(#paint2_radial_7_996)"/>
<path d="M0 455.853C0 452.853 0 452.853 1.3418 451.246C2.27089 450.394 2.27089 450.394 3.21875 449.525C3.90453 448.889 4.59031 448.254 5.29688 447.599C6.02391 446.94 6.75094 446.281 7.5 445.603C8.19609 444.959 8.89219 444.316 9.60938 443.654C46.9624 409.275 87.826 388.704 139.414 390.646C163.243 392.021 185.957 398.656 208.754 405.243C209.81 405.548 210.865 405.852 211.953 406.165C217.252 407.693 222.548 409.23 227.838 410.79C272.663 423.89 324.036 433.246 367.219 410.013C387.029 398.905 402.656 382.785 415 363.853C415.633 362.905 416.266 361.958 416.918 360.982C430.359 340.113 439.33 316.986 448 293.853C448.441 292.683 448.881 291.513 449.335 290.308C454.419 276.71 458.938 262.977 463.257 249.123C473.992 214.71 485.815 180.58 501 147.853C501.541 146.679 502.082 145.504 502.64 144.295C511.843 124.427 521.716 105.313 535 87.8527C535.438 87.2718 535.876 86.691 536.328 86.0925C542.055 78.5289 548.085 71.3808 554.59 64.4738C557.011 61.905 557.011 61.905 559.09 59.216C560.822 57.0726 562.525 55.3725 564.625 53.6027C567.654 51.0235 570.589 48.3757 573.5 45.6652C598.373 23.3058 627.248 9.77398 659.562 1.85272C660.892 1.52268 660.892 1.52268 662.249 1.18597C663.076 0.993501 663.902 0.801028 664.754 0.602722C665.842 0.347488 665.842 0.347488 666.951 0.0870972C669.224 -0.172948 670.832 0.169184 673 0.852722C671.918 1.21882 670.837 1.58491 669.723 1.9621C627.565 16.6378 588.689 41.6655 562 77.8527C561.515 78.509 561.031 79.1653 560.531 79.8415C552.739 90.4721 545.606 101.448 539 112.853C538.427 113.84 538.427 113.84 537.842 114.848C515.929 153.128 503.469 196.692 491.885 238.986C488.64 250.83 485.319 262.651 481.962 274.464C481.369 276.554 480.777 278.646 480.19 280.738C469.113 320.079 452.86 360.148 428 392.853C426.898 394.32 426.898 394.32 425.773 395.818C416.91 407.121 406.403 418.452 394 425.853C392.899 426.517 391.798 427.18 390.664 427.864C349.426 452.284 305.242 450.796 259.945 439.361C244.347 435.284 229.18 430.326 214 424.915C200.744 420.212 187.482 415.595 174.043 411.439C172.993 411.112 171.943 410.786 170.861 410.45C143.046 401.97 110.258 398.011 82 406.853C80.9563 407.158 80.9563 407.158 79.8916 407.47C49.7016 416.423 24.1929 436.462 0 455.853Z" fill="url(#paint3_radial_7_996)"/>
<path d="M199.583 450.12C157.449 430.323 112.754 413.302 66.4932 429.499C51.2603 435.134 37.4866 443.14 24.458 452.807C23.798 452.477 23.138 452.147 22.458 451.807C53.1925 427.401 88.846 413.243 128.56 417.272C161.983 421.262 193.946 433.863 225.333 445.432C276.744 464.374 335.69 485.777 389.158 461.586C403.962 454.478 416.521 446.119 428.458 434.807C429.27 434.048 430.082 433.289 430.919 432.507C447.486 416.54 459.925 396.638 469.458 375.807C469.761 375.161 470.064 374.514 470.376 373.848C483.338 345.928 491.101 315.5 499.602 286.028C511.538 244.655 523.829 202.744 542.458 163.807C542.879 162.92 543.3 162.033 543.733 161.119C566.583 113.262 600.589 68.8662 652.175 50.5211C681.808 40.4933 681.808 40.4933 695.458 40.8073C692.545 43.7208 688.981 44.0149 685.083 44.9323C669.164 48.9214 654.343 55.0583 640.458 63.8073C639.423 64.4557 638.388 65.1041 637.321 65.7721C622.003 75.677 608.118 87.8616 597.439 102.694C596.241 104.192 595.87 104.577 595.87 104.577L594.415 106.56C594.415 106.56 591.95 110.004 590.021 112.495C559.942 153.196 543.499 203.183 531.603 251.854C530.864 254.873 530.116 257.888 529.366 260.904C526.836 271.093 524.339 281.289 521.869 291.493C504.765 362.077 504.765 362.077 489.458 393.807C489.042 394.673 488.627 395.539 488.198 396.431C468.775 436.335 436.758 471.308 394.181 486.378C328.008 508.417 259.083 478.136 199.583 450.12Z" fill="url(#paint4_radial_7_996)"/>
<path d="M217.395 487.382C213.373 485.086 209.325 482.84 205.272 480.599C200.447 477.93 195.633 475.243 190.84 472.514C187.475 470.605 184.095 468.723 180.71 466.849C179.521 466.19 179.521 466.19 178.309 465.516C145.832 447.616 107.627 435.225 70.4951 445.646C62.96 448.041 55.7384 450.373 49.085 454.724C47.9712 455.426 46.8575 456.127 45.71 456.849C44.72 456.519 43.73 456.189 42.71 455.849C70.0756 439.535 101.486 432.34 133.129 440.16C161.556 447.748 188.536 460.006 214.358 474.001C220.583 477.359 226.966 480.345 233.397 483.287C234.623 483.85 235.849 484.414 237.074 484.977C239.502 486.093 241.932 487.205 244.362 488.316C247.287 489.656 250.205 491.009 253.12 492.369C303.254 515.602 360.859 529.886 414.784 511.506C447.764 499.099 473.014 472.131 492.71 443.849C493.112 443.273 493.514 442.696 493.928 442.101C496.411 438.47 498.624 434.718 500.71 430.849C501.112 430.104 501.515 429.359 501.93 428.592C525.524 384.023 534.062 331.207 545.316 282.454C555.912 236.641 568.323 187.259 596.71 148.849C597.477 147.8 598.244 146.751 599.034 145.67C604.78 137.941 611.04 130.795 617.71 123.849C618.233 123.295 618.755 122.741 619.294 122.171C623.636 117.672 628.301 113.96 633.397 110.349C634.594 109.499 634.594 109.499 635.814 108.632C657.018 93.7051 685.223 80.981 711.71 81.8494C711.71 82.1794 711.71 82.5094 711.71 82.8494C710.463 83.0685 709.217 83.2877 707.933 83.5135C669.94 90.4714 638.181 110.224 615.71 141.849C582.242 190.693 569.916 250.788 558.845 307.864C550.254 352.139 541.149 397.729 519.71 437.849C519.095 439.008 518.48 440.167 517.847 441.361C503.331 467.718 482.096 493.124 457.71 510.849C457.181 511.239 456.652 511.628 456.106 512.029C382.037 565.903 287.839 527.803 217.395 487.382Z" fill="url(#paint5_radial_7_996)"/>
<defs>
<radialGradient id="paint0_radial_7_996" cx="0" cy="0" r="1" gradientUnits="userSpaceOnUse" gradientTransform="translate(695.614 511.686) rotate(65.3561) scale(308.595 455.595)">
<stop stop-color="#F3F3F3"/>
<stop offset="1" stop-color="#A6A6A6"/>
</radialGradient>
<radialGradient id="paint1_radial_7_996" cx="0" cy="0" r="1" gradientUnits="userSpaceOnUse" gradientTransform="translate(658.023 468.311) rotate(60.2551) scale(279.756 415.4)">
<stop stop-color="#F3F3F3"/>
<stop offset="1" stop-color="#A6A6A6"/>
</radialGradient>
<radialGradient id="paint2_radial_7_996" cx="0" cy="0" r="1" gradientUnits="userSpaceOnUse" gradientTransform="translate(636.336 420.6) rotate(83.9725) scale(234.069 342.777)">
<stop stop-color="#F3F3F3"/>
<stop offset="1" stop-color="#A6A6A6"/>
</radialGradient>
<radialGradient id="paint3_radial_7_996" cx="0" cy="0" r="1" gradientUnits="userSpaceOnUse" gradientTransform="translate(371.951 423.038) rotate(-114.644) scale(308.595 455.595)">
<stop stop-color="#F3F3F3"/>
<stop offset="1" stop-color="#A6A6A6"/>
</radialGradient>
<radialGradient id="paint4_radial_7_996" cx="0" cy="0" r="1" gradientUnits="userSpaceOnUse" gradientTransform="translate(409.542 466.412) rotate(-119.745) scale(279.756 415.4)">
<stop stop-color="#F3F3F3"/>
<stop offset="1" stop-color="#A6A6A6"/>
</radialGradient>
<radialGradient id="paint5_radial_7_996" cx="0" cy="0" r="1" gradientUnits="userSpaceOnUse" gradientTransform="translate(431.229 514.124) rotate(-96.0275) scale(234.069 342.777)">
<stop stop-color="#F3F3F3"/>
<stop offset="1" stop-color="#A6A6A6"/>
</radialGradient>
</defs>
</svg>
