<svg width="2767" height="216" viewBox="0 0 2767 216" fill="none" xmlns="http://www.w3.org/2000/svg">
<path d="M87.9 215.1C77.5 215.1 68 214.2 59.4 212.4C50.8 210.8 43 208.5 36 205.5C29 202.5 22.9 199.2 17.7 195.6C12.7 191.8 8.6 187.9 5.4 183.9C3.2 181.1 1.7 178.7 0.9 176.7C0.300001 174.5 0.400001 172.4 1.2 170.4C2.2 168.2 4 165.9 6.6 163.5C9.4 161.1 12 159.9 14.4 159.9C16.8 159.7 19.1 160.4 21.3 162C23.5 163.6 25.9 165.8 28.5 168.6C34.3 175.4 42.2 180.5 52.2 183.9C62.4 187.3 74.1 189 87.3 189C98.7 189 108.8 187.9 117.6 185.7C126.4 183.3 133.3 179.7 138.3 174.9C143.5 169.9 146.1 163.5 146.1 155.7C146.1 149.1 144.2 143.6 140.4 139.2C136.6 134.8 131.4 131.1 124.8 128.1C118.4 125.1 111.2 122.5 103.2 120.3C95.2 118.1 86.9 115.9 78.3 113.7C71.1 111.9 64 109.9 57 107.7C50 105.5 43.3 103 36.9 100.2C30.7 97.2 25.2 93.7 20.4 89.7C15.6 85.7 11.8 80.9 9 75.3C6.4 69.7 5.1 63.2 5.1 55.8C5.1 44.2 8.4 34.3 15 26.1C21.6 17.7 30.6 11.3 42 6.9C53.6 2.3 66.8 -2.6226e-06 81.6 -2.6226e-06C91.6 -2.6226e-06 100.7 0.799993 108.9 2.39998C117.3 3.79999 124.6 5.7 130.8 8.1C137 10.3 142.2 12.6 146.4 15C150.8 17.4 154.1 19.6 156.3 21.6C160.3 25 162.6 28 163.2 30.6C163.8 33.2 162.6 36.4 159.6 40.2C156.4 44.2 153.3 46.4 150.3 46.8C147.5 47.2 144.1 46.1 140.1 43.5C135.7 39.5 130.7 36.3 125.1 33.9C119.5 31.3 113.1 29.4 105.9 28.2C98.9 26.8 90.9 26.1 81.9 26.1C74.9 26.1 68.4 26.7 62.4 27.9C56.4 29.1 51.1 30.9 46.5 33.3C42.1 35.7 38.6 38.8 36 42.6C33.6 46.4 32.4 50.9 32.4 56.1C32.4 61.5 34.1 66.1 37.5 69.9C40.9 73.5 45.5 76.6 51.3 79.2C57.3 81.6 64 83.9 71.4 86.1C78.8 88.1 86.5 90.1 94.5 92.1C103.9 94.3 113.3 97 122.7 100.2C132.1 103.2 140.6 107 148.2 111.6C155.8 116.2 161.9 122 166.5 129C171.1 136 173.4 144.6 173.4 154.8C173.4 164.6 171.2 173.3 166.8 180.9C162.4 188.5 156.2 194.9 148.2 200.1C140.4 205.1 131.3 208.8 120.9 211.2C110.7 213.8 99.7 215.1 87.9 215.1ZM374.154 214.5C356.754 214.5 340.754 211.9 326.154 206.7C311.754 201.5 299.154 194.2 288.354 184.8C277.554 175.2 269.154 164 263.154 151.2C257.354 138.4 254.454 124.4 254.454 109.2C254.454 93.6 257.354 79.2 263.154 66C268.954 52.8 277.054 41.4 287.454 31.8C298.054 22 310.454 14.4 324.654 8.99999C338.854 3.59999 354.454 0.899986 371.454 0.899986C388.654 0.899986 404.554 3.59999 419.154 8.99999C433.754 14.2 446.354 21.6 456.954 31.2C467.554 40.6 475.754 51.9 481.554 65.1C487.554 78.1 490.554 92.4 490.554 108C490.554 123.4 487.654 137.6 481.854 150.6C476.054 163.4 467.954 174.6 457.554 184.2C447.154 193.8 434.854 201.3 420.654 206.7C406.454 211.9 390.954 214.5 374.154 214.5ZM372.354 187.5C385.754 187.5 397.954 185.5 408.954 181.5C420.154 177.5 429.754 172 437.754 165C445.954 157.8 452.254 149.4 456.654 139.8C461.254 130 463.554 119.3 463.554 107.7C463.554 96.3 461.254 85.8 456.654 76.2C452.254 66.4 445.954 57.9 437.754 50.7C429.554 43.5 419.954 38 408.954 34.2C397.954 30.2 385.854 28.2 372.654 28.2C359.454 28.2 347.254 30.2 336.054 34.2C325.054 38 315.454 43.5 307.254 50.7C299.054 57.7 292.654 66.1 288.054 75.9C283.654 85.7 281.454 96.4 281.454 108C281.454 119.4 283.754 130 288.354 139.8C292.954 149.4 299.254 157.8 307.254 165C315.454 172.2 325.054 177.8 336.054 181.8C347.054 185.6 359.154 187.5 372.354 187.5ZM590.672 212.4C587.072 212.4 584.272 211.8 582.272 210.6C580.472 209.4 579.172 207.8 578.372 205.8C577.772 203.6 577.472 201.1 577.472 198.3V15.6C577.472 13 577.872 10.8 578.672 8.99999C579.672 7.19999 581.172 5.79999 583.172 4.79999C585.372 3.59999 588.272 2.99999 591.872 2.99999C596.072 2.99999 599.072 3.4 600.872 4.2C602.872 5 604.772 6.4 606.572 8.4L751.772 170.1V15.6C751.772 13 752.172 10.8 752.972 8.99999C753.772 7.19999 755.172 5.79999 757.172 4.79999C759.172 3.59999 761.972 2.99999 765.572 2.99999C769.372 2.99999 772.172 3.59999 773.972 4.79999C775.972 5.99999 777.272 7.69999 777.872 9.9C778.472 11.9 778.772 14.2 778.772 16.8V198.6C778.772 201.2 778.372 203.6 777.572 205.8C776.772 207.8 775.272 209.4 773.072 210.6C770.872 211.8 767.972 212.4 764.372 212.4C761.372 212.4 758.772 212 756.572 211.2C754.372 210.4 752.272 208.9 750.272 206.7L604.472 46.2V198.6C604.472 201.2 604.072 203.6 603.272 205.8C602.672 207.8 601.372 209.4 599.372 210.6C597.372 211.8 594.472 212.4 590.672 212.4ZM981.192 213.3C964.392 213.3 949.692 211 937.092 206.4C924.492 201.6 913.892 194.9 905.292 186.3C896.892 177.7 890.592 167.4 886.392 155.4C882.192 143.4 880.092 130.2 880.092 115.8V16.5C880.092 13.9 880.392 11.6 880.992 9.6C881.792 7.39999 883.092 5.79999 884.892 4.79999C886.892 3.59999 889.892 2.99999 893.892 2.99999C897.892 2.99999 900.792 3.59999 902.592 4.79999C904.592 5.79999 905.892 7.39999 906.492 9.6C907.292 11.6 907.692 14 907.692 16.8V115.8C907.692 129.8 910.392 142.1 915.792 152.7C921.192 163.3 929.392 171.6 940.392 177.6C951.392 183.4 965.292 186.3 982.092 186.3C998.492 186.3 1012.19 183.4 1023.19 177.6C1034.19 171.8 1042.39 163.6 1047.79 153C1053.19 142.4 1055.89 129.9 1055.89 115.5V14.7C1055.89 12.5 1056.19 10.5 1056.79 8.69999C1057.59 6.89999 1058.99 5.49999 1060.99 4.49999C1062.99 3.49999 1065.99 2.99999 1069.99 2.99999C1073.79 2.99999 1076.59 3.59999 1078.39 4.79999C1080.39 5.99999 1081.69 7.59999 1082.29 9.6C1082.89 11.6 1083.19 14 1083.19 16.8V116.4C1083.19 130.8 1081.09 144 1076.89 156C1072.69 167.8 1066.29 178 1057.69 186.6C1049.09 195.2 1038.39 201.8 1025.59 206.4C1012.99 211 998.192 213.3 981.192 213.3ZM1263.35 215.1C1252.95 215.1 1243.45 214.2 1234.85 212.4C1226.25 210.8 1218.45 208.5 1211.45 205.5C1204.45 202.5 1198.35 199.2 1193.15 195.6C1188.15 191.8 1184.05 187.9 1180.85 183.9C1178.65 181.1 1177.15 178.7 1176.35 176.7C1175.75 174.5 1175.85 172.4 1176.65 170.4C1177.65 168.2 1179.45 165.9 1182.05 163.5C1184.85 161.1 1187.45 159.9 1189.85 159.9C1192.25 159.7 1194.55 160.4 1196.75 162C1198.95 163.6 1201.35 165.8 1203.95 168.6C1209.75 175.4 1217.65 180.5 1227.65 183.9C1237.85 187.3 1249.55 189 1262.75 189C1274.15 189 1284.25 187.9 1293.05 185.7C1301.85 183.3 1308.75 179.7 1313.75 174.9C1318.95 169.9 1321.55 163.5 1321.55 155.7C1321.55 149.1 1319.65 143.6 1315.85 139.2C1312.05 134.8 1306.85 131.1 1300.25 128.1C1293.85 125.1 1286.65 122.5 1278.65 120.3C1270.65 118.1 1262.35 115.9 1253.75 113.7C1246.55 111.9 1239.45 109.9 1232.45 107.7C1225.45 105.5 1218.75 103 1212.35 100.2C1206.15 97.2 1200.65 93.7 1195.85 89.7C1191.05 85.7 1187.25 80.9 1184.45 75.3C1181.85 69.7 1180.55 63.2 1180.55 55.8C1180.55 44.2 1183.85 34.3 1190.45 26.1C1197.05 17.7 1206.05 11.3 1217.45 6.9C1229.05 2.3 1242.25 -2.6226e-06 1257.05 -2.6226e-06C1267.05 -2.6226e-06 1276.15 0.799993 1284.35 2.39998C1292.75 3.79999 1300.05 5.7 1306.25 8.1C1312.45 10.3 1317.65 12.6 1321.85 15C1326.25 17.4 1329.55 19.6 1331.75 21.6C1335.75 25 1338.05 28 1338.65 30.6C1339.25 33.2 1338.05 36.4 1335.05 40.2C1331.85 44.2 1328.75 46.4 1325.75 46.8C1322.95 47.2 1319.55 46.1 1315.55 43.5C1311.15 39.5 1306.15 36.3 1300.55 33.9C1294.95 31.3 1288.55 29.4 1281.35 28.2C1274.35 26.8 1266.35 26.1 1257.35 26.1C1250.35 26.1 1243.85 26.7 1237.85 27.9C1231.85 29.1 1226.55 30.9 1221.95 33.3C1217.55 35.7 1214.05 38.8 1211.45 42.6C1209.05 46.4 1207.85 50.9 1207.85 56.1C1207.85 61.5 1209.55 66.1 1212.95 69.9C1216.35 73.5 1220.95 76.6 1226.75 79.2C1232.75 81.6 1239.45 83.9 1246.85 86.1C1254.25 88.1 1261.95 90.1 1269.95 92.1C1279.35 94.3 1288.75 97 1298.15 100.2C1307.55 103.2 1316.05 107 1323.65 111.6C1331.25 116.2 1337.35 122 1341.95 129C1346.55 136 1348.85 144.6 1348.85 154.8C1348.85 164.6 1346.65 173.3 1342.25 180.9C1337.85 188.5 1331.65 194.9 1323.65 200.1C1315.85 205.1 1306.75 208.8 1296.35 211.2C1286.15 213.8 1275.15 215.1 1263.35 215.1ZM1589.8 212.4C1585.8 212.4 1582.8 211.8 1580.8 210.6C1579 209.6 1577.8 208.1 1577.2 206.1C1576.6 203.9 1576.3 201.4 1576.3 198.6V16.5C1576.3 13.9 1576.7 11.6 1577.5 9.6C1578.3 7.59999 1579.7 5.99999 1581.7 4.79999C1583.7 3.59999 1586.5 2.99999 1590.1 2.99999H1684C1693.6 2.99999 1702.6 4.49999 1711 7.49999C1719.6 10.3 1727.2 14.7 1733.8 20.7C1740.4 26.5 1745.6 33.6 1749.4 42C1753.4 50.4 1755.4 60.1 1755.4 71.1C1755.4 81.9 1753.4 91.5 1749.4 99.9C1745.6 108.3 1740.3 115.4 1733.5 121.2C1726.9 126.8 1719.3 131.1 1710.7 134.1C1702.3 137.1 1693.3 138.6 1683.7 138.6H1603.6V198.9C1603.6 201.7 1603.3 204.1 1602.7 206.1C1602.1 208.1 1600.8 209.6 1598.8 210.6C1596.8 211.8 1593.8 212.4 1589.8 212.4ZM1603.6 111.3H1684C1692 111.3 1699.3 109.8 1705.9 106.8C1712.7 103.6 1718.1 99 1722.1 93C1726.3 86.8 1728.4 79.3 1728.4 70.5C1728.4 62.1 1726.4 54.9 1722.4 48.9C1718.4 42.9 1713 38.3 1706.2 35.1C1699.6 31.9 1692.1 30.3 1683.7 30.3H1603.6V111.3ZM1861.63 212.4C1857.63 212.4 1854.63 211.8 1852.63 210.6C1850.83 209.6 1849.63 208.1 1849.03 206.1C1848.43 203.9 1848.13 201.4 1848.13 198.6V16.2C1848.13 13.6 1848.43 11.4 1849.03 9.6C1849.83 7.59999 1851.23 5.99999 1853.23 4.79999C1855.23 3.59999 1858.13 2.99999 1861.93 2.99999H1955.83C1965.63 2.99999 1974.83 4.49999 1983.43 7.49999C1992.03 10.3 1999.63 14.5 2006.23 20.1C2012.83 25.7 2017.93 32.8 2021.53 41.4C2025.33 49.8 2027.23 59.6 2027.23 70.8C2027.23 77.8 2025.93 85.1 2023.33 92.7C2020.73 100.1 2016.83 107.1 2011.63 113.7C2006.63 120.3 2000.33 125.8 1992.73 130.2C1985.33 134.6 1976.73 137.1 1966.93 137.7H1875.13V198.9C1875.13 201.7 1874.83 204.1 1874.23 206.1C1873.63 208.1 1872.33 209.6 1870.33 210.6C1868.33 211.8 1865.43 212.4 1861.63 212.4ZM2022.43 209.1C2018.23 211.9 2014.73 212.8 2011.93 211.8C2009.13 210.8 2006.43 208.4 2003.83 204.6L1951.03 127.5L1980.73 123.3L2026.93 189.3C2028.93 192.3 2030.13 195 2030.53 197.4C2030.93 199.6 2030.43 201.6 2029.03 203.4C2027.83 205.2 2025.63 207.1 2022.43 209.1ZM1875.13 111.3H1962.43C1967.03 111.3 1971.53 110.5 1975.93 108.9C1980.33 107.1 1984.33 104.5 1987.93 101.1C1991.73 97.7 1994.73 93.5 1996.93 88.5C1999.13 83.5 2000.23 77.5 2000.23 70.5C2000.23 61.9 1998.23 54.6 1994.23 48.6C1990.43 42.6 1985.13 38.1 1978.33 35.1C1971.73 31.9 1964.03 30.3 1955.23 30.3H1875.13V111.3ZM2136.33 212.4C2132.33 212.4 2129.33 211.8 2127.33 210.6C2125.53 209.6 2124.33 208.1 2123.73 206.1C2123.13 203.9 2122.83 201.4 2122.83 198.6V16.5C2122.83 13.7 2123.13 11.3 2123.73 9.29998C2124.53 7.29999 2125.83 5.79999 2127.63 4.79999C2129.63 3.59999 2132.63 2.99999 2136.63 2.99999C2140.63 2.99999 2143.53 3.59999 2145.33 4.79999C2147.33 5.79999 2148.53 7.29999 2148.93 9.29998C2149.53 11.3 2149.83 13.8 2149.83 16.8V198.9C2149.83 201.7 2149.53 204.1 2148.93 206.1C2148.33 208.1 2147.03 209.6 2145.03 210.6C2143.23 211.8 2140.33 212.4 2136.33 212.4ZM2261.08 212.4C2257.68 212.4 2254.98 211.8 2252.98 210.6C2250.98 209.4 2249.58 207.8 2248.78 205.8C2248.18 203.6 2247.88 201.2 2247.88 198.6V16.2C2247.88 13.6 2248.18 11.4 2248.78 9.6C2249.58 7.59999 2250.98 5.99999 2252.98 4.79999C2254.98 3.59999 2257.88 2.99999 2261.68 2.99999C2264.68 2.99999 2266.98 3.19999 2268.58 3.59999C2270.38 3.99999 2271.88 4.6 2273.08 5.4C2274.48 5.99999 2275.68 6.99999 2276.68 8.4L2371.48 124.8H2362.18L2457.58 7.49999C2458.78 6.1 2459.98 5.1 2461.18 4.49999C2462.58 3.89999 2464.18 3.49999 2465.98 3.29999C2467.98 3.09999 2470.18 2.99999 2472.58 2.99999C2476.38 2.99999 2479.18 3.59999 2480.98 4.79999C2482.98 5.99999 2484.28 7.69999 2484.88 9.9C2485.68 11.9 2486.08 14.2 2486.08 16.8V199.2C2486.08 201.6 2485.68 203.8 2484.88 205.8C2484.28 207.8 2482.98 209.4 2480.98 210.6C2478.98 211.8 2476.08 212.4 2472.28 212.4C2468.68 212.4 2465.88 211.8 2463.88 210.6C2462.08 209.4 2460.78 207.8 2459.98 205.8C2459.38 203.6 2459.08 201.2 2459.08 198.6V45.6L2378.68 145.2C2377.88 146 2376.98 146.9 2375.98 147.9C2374.98 148.7 2373.68 149.5 2372.08 150.3C2370.68 150.9 2368.88 151.2 2366.68 151.2C2364.68 151.2 2362.98 150.9 2361.58 150.3C2360.18 149.5 2358.98 148.7 2357.98 147.9C2356.98 146.9 2355.98 145.8 2354.98 144.6L2274.88 45.9V199.2C2274.88 201.6 2274.48 203.8 2273.68 205.8C2273.08 207.8 2271.78 209.4 2269.78 210.6C2267.78 211.8 2264.88 212.4 2261.08 212.4ZM2599.15 212.4C2595.35 212.4 2592.45 211.8 2590.45 210.6C2588.45 209.6 2587.15 208.1 2586.55 206.1C2586.15 203.9 2585.95 201.4 2585.95 198.6V16.5C2585.95 11.3 2586.95 7.79999 2588.95 5.99999C2590.95 3.99999 2594.65 2.99999 2600.05 2.99999H2753.05C2755.85 2.99999 2758.25 3.29999 2760.25 3.89998C2762.25 4.49999 2763.75 5.79999 2764.75 7.79999C2765.95 9.79998 2766.55 12.8 2766.55 16.8C2766.55 20.8 2765.95 23.8 2764.75 25.8C2763.55 27.6 2761.95 28.8 2759.95 29.4C2757.95 30 2755.55 30.3 2752.75 30.3H2612.95V92.4H2720.05C2722.85 92.4 2725.15 92.7 2726.95 93.3C2728.95 93.9 2730.45 95.1 2731.45 96.9C2732.45 98.7 2732.95 101.5 2732.95 105.3C2732.95 108.9 2732.45 111.6 2731.45 113.4C2730.45 115.2 2728.95 116.4 2726.95 117C2724.95 117.4 2722.45 117.6 2719.45 117.6H2612.95V185.4H2753.05C2755.85 185.4 2758.25 185.7 2760.25 186.3C2762.25 186.9 2763.75 188.2 2764.75 190.2C2765.95 192 2766.55 194.9 2766.55 198.9C2766.55 202.9 2765.95 205.9 2764.75 207.9C2763.55 209.7 2761.95 210.9 2759.95 211.5C2757.95 212.1 2755.55 212.4 2752.75 212.4H2599.15Z" fill="url(#paint0_radial_7_931)"/>
<defs>
<radialGradient id="paint0_radial_7_931" cx="0" cy="0" r="1" gradientUnits="userSpaceOnUse" gradientTransform="translate(1385 98.9) scale(1397 181.5)">
<stop stop-color="#F3F3F3"/>
<stop offset="1" stop-color="#A6A6A6"/>
</radialGradient>
</defs>
</svg>
