<svg width="4166" height="935" viewBox="0 0 4166 935" fill="none" xmlns="http://www.w3.org/2000/svg">
<path d="M1067.56 478.871C1067.56 481.871 1067.56 481.871 1066.22 483.477C1065.29 484.33 1065.29 484.33 1064.35 485.199C1063.66 485.835 1062.97 486.47 1062.27 487.125C1061.54 487.784 1060.81 488.442 1060.06 489.121C1059.37 489.764 1058.67 490.407 1057.96 491.07C1020.6 525.449 979.739 546.019 928.151 544.078C904.322 542.702 881.608 536.068 858.811 529.48C857.755 529.176 856.7 528.872 855.612 528.558C850.313 527.031 845.016 525.494 839.727 523.934C794.902 510.834 743.529 501.478 700.346 524.711C680.536 535.819 664.908 551.938 652.565 570.871C651.932 571.818 651.299 572.766 650.647 573.742C637.206 594.611 628.235 617.737 619.565 640.871C619.124 642.041 618.684 643.211 618.23 644.416C613.146 658.014 608.627 671.746 604.308 685.601C593.573 720.014 581.75 754.144 566.565 786.871C566.024 788.045 565.483 789.219 564.925 790.429C555.721 810.297 545.849 829.411 532.565 846.871C532.127 847.452 531.689 848.033 531.237 848.631C525.509 856.195 519.48 863.343 512.975 870.25C510.554 872.819 510.554 872.819 508.475 875.508C506.743 877.651 505.04 879.351 502.94 881.121C499.911 883.7 496.976 886.348 494.065 889.058C469.192 911.418 440.317 924.95 408.002 932.871C406.673 933.201 406.673 933.201 405.316 933.538C404.489 933.73 403.663 933.923 402.811 934.121C401.723 934.376 401.723 934.376 400.614 934.637C398.341 934.897 396.733 934.554 394.565 933.871C395.646 933.505 396.728 933.139 397.842 932.762C440 918.086 478.876 893.058 505.565 856.871C506.05 856.215 506.534 855.558 507.034 854.882C514.826 844.252 521.959 833.275 528.565 821.871C529.138 820.883 529.138 820.883 529.723 819.876C551.636 781.595 564.096 738.032 575.68 695.737C578.925 683.894 582.246 672.072 585.603 660.26C586.196 658.169 586.788 656.078 587.375 653.986C598.452 614.645 614.705 574.575 639.565 541.871C640.667 540.403 640.667 540.403 641.792 538.906C650.655 527.602 661.162 516.272 673.565 508.871C674.666 508.207 675.767 507.543 676.901 506.859C718.139 482.439 762.323 483.928 807.62 495.363C823.218 499.44 838.385 504.398 853.565 509.808C866.821 514.511 880.083 519.129 893.522 523.285C894.572 523.611 895.622 523.937 896.704 524.273C924.518 532.754 957.307 536.713 985.565 527.871C986.609 527.565 986.609 527.565 987.673 527.254C1017.86 518.3 1043.37 498.262 1067.56 478.871Z" fill="url(#paint0_radial_7_997)"/>
<path d="M867.982 484.604C910.116 504.401 954.811 521.422 1001.07 505.225C1016.3 499.59 1030.08 491.584 1043.11 481.916C1043.77 482.246 1044.43 482.576 1045.11 482.916C1014.37 507.323 978.719 521.481 939.005 517.452C905.582 513.461 873.619 500.86 842.232 489.291C790.821 470.35 731.875 448.947 678.407 473.138C663.603 480.246 651.044 488.604 639.107 499.916C638.295 500.676 637.483 501.435 636.646 502.217C620.079 518.183 607.64 538.085 598.107 558.916C597.804 559.563 597.501 560.209 597.189 560.875C584.227 588.796 576.464 619.224 567.963 648.695C556.027 690.069 543.736 731.98 525.107 770.916C524.686 771.804 524.265 772.691 523.832 773.605C500.982 821.462 466.976 865.857 415.39 884.203C385.757 894.23 385.757 894.23 372.107 893.916C375.02 891.003 378.584 890.709 382.482 889.791C398.401 885.802 413.221 879.665 427.107 870.916C428.142 870.268 429.177 869.62 430.244 868.952C445.562 859.047 459.447 846.862 470.126 832.03C471.324 830.532 471.695 830.146 471.695 830.146L473.15 828.164C473.15 828.164 475.615 824.72 477.544 822.229C507.623 781.527 524.066 731.54 535.962 682.869C536.701 679.851 537.449 676.835 538.199 673.82C540.729 663.631 543.226 653.435 545.696 643.231C562.8 572.647 562.8 572.647 578.107 540.916C578.523 540.051 578.938 539.185 579.367 538.293C598.79 498.388 630.807 463.415 673.384 448.346C739.557 426.307 808.482 456.588 867.982 484.604Z" fill="url(#paint1_radial_7_997)"/>
<path d="M850.17 447.342C854.192 449.637 858.24 451.884 862.292 454.124C867.118 456.794 871.932 459.481 876.725 462.209C880.09 464.119 883.47 466.001 886.855 467.874C888.044 468.534 888.044 468.534 889.256 469.207C921.733 487.108 959.938 499.499 997.07 489.077C1004.6 486.682 1011.83 484.351 1018.48 479.999C1019.59 479.298 1020.71 478.597 1021.85 477.874C1022.84 478.204 1023.83 478.534 1024.85 478.874C997.489 495.188 966.079 502.384 934.436 494.563C906.009 486.975 879.029 474.718 853.207 460.723C846.982 457.364 840.599 454.379 834.167 451.437C832.942 450.873 831.716 450.31 830.491 449.746C828.063 448.631 825.633 447.519 823.203 446.408C820.278 445.068 817.36 443.715 814.445 442.355C764.311 419.122 706.706 404.838 652.781 423.218C619.801 435.624 594.551 462.593 574.855 490.874C574.453 491.451 574.051 492.028 573.637 492.622C571.154 496.253 568.941 500.006 566.855 503.874C566.452 504.619 566.05 505.364 565.635 506.132C542.041 550.701 533.503 603.517 522.249 652.27C511.653 698.083 499.242 747.465 470.855 785.874C470.088 786.924 469.321 787.973 468.531 789.054C462.785 796.782 456.525 803.928 449.855 810.874C449.332 811.428 448.81 811.982 448.271 812.553C443.929 817.052 439.264 820.764 434.167 824.374C432.971 825.224 432.971 825.224 431.751 826.092C410.547 841.019 382.342 853.743 355.855 852.874C355.855 852.544 355.855 852.214 355.855 851.874C357.102 851.655 358.348 851.436 359.632 851.21C397.625 844.252 429.383 824.5 451.855 792.874C485.323 744.031 497.649 683.935 508.72 626.859C517.311 582.585 526.416 536.995 547.855 496.874C548.47 495.715 549.085 494.557 549.718 493.363C564.234 467.006 585.469 441.6 609.855 423.874C610.384 423.485 610.913 423.096 611.458 422.695C685.527 368.821 779.726 406.921 850.17 447.342Z" fill="url(#paint2_radial_7_997)"/>
<path d="M0 455.853C0 452.853 0 452.853 1.3418 451.246C2.27089 450.394 2.27089 450.394 3.21875 449.525C3.90453 448.889 4.59031 448.254 5.29688 447.599C6.02391 446.94 6.75094 446.281 7.5 445.603C8.19609 444.959 8.89219 444.316 9.60938 443.654C46.9624 409.275 87.826 388.704 139.414 390.646C163.243 392.021 185.957 398.656 208.754 405.243C209.81 405.548 210.865 405.852 211.953 406.165C217.252 407.693 222.548 409.23 227.838 410.79C272.663 423.89 324.036 433.246 367.219 410.013C387.029 398.905 402.656 382.785 415 363.853C415.633 362.905 416.266 361.958 416.918 360.982C430.359 340.113 439.33 316.986 448 293.853C448.441 292.683 448.881 291.513 449.335 290.308C454.419 276.71 458.938 262.977 463.257 249.123C473.992 214.71 485.815 180.58 501 147.853C501.541 146.679 502.082 145.504 502.64 144.295C511.843 124.427 521.716 105.313 535 87.8527C535.438 87.2718 535.876 86.691 536.328 86.0925C542.055 78.5289 548.085 71.3808 554.59 64.4738C557.011 61.905 557.011 61.905 559.09 59.216C560.822 57.0726 562.525 55.3725 564.625 53.6027C567.654 51.0235 570.589 48.3757 573.5 45.6652C598.373 23.3058 627.248 9.77398 659.562 1.85272C660.892 1.52268 660.892 1.52268 662.249 1.18597C663.076 0.993501 663.902 0.801028 664.754 0.602722C665.842 0.347488 665.842 0.347488 666.951 0.0870972C669.224 -0.172948 670.832 0.169184 673 0.852722C671.918 1.21882 670.837 1.58491 669.723 1.9621C627.565 16.6378 588.689 41.6655 562 77.8527C561.515 78.509 561.031 79.1653 560.531 79.8415C552.739 90.4721 545.606 101.448 539 112.853C538.427 113.84 538.427 113.84 537.842 114.848C515.929 153.128 503.469 196.692 491.885 238.986C488.64 250.83 485.319 262.651 481.962 274.464C481.369 276.554 480.777 278.646 480.19 280.738C469.113 320.079 452.86 360.148 428 392.853C426.898 394.32 426.898 394.32 425.773 395.818C416.91 407.121 406.403 418.452 394 425.853C392.899 426.517 391.798 427.18 390.664 427.864C349.426 452.284 305.242 450.796 259.945 439.361C244.347 435.284 229.18 430.326 214 424.915C200.744 420.212 187.482 415.595 174.043 411.439C172.993 411.112 171.943 410.786 170.861 410.45C143.046 401.97 110.258 398.011 82 406.853C80.9563 407.158 80.9563 407.158 79.8916 407.47C49.7016 416.423 24.1929 436.462 0 455.853Z" fill="url(#paint3_radial_7_997)"/>
<path d="M199.583 450.12C157.449 430.323 112.754 413.302 66.4932 429.499C51.2603 435.134 37.4866 443.14 24.458 452.807C23.798 452.477 23.138 452.147 22.458 451.807C53.1925 427.401 88.846 413.243 128.56 417.272C161.983 421.262 193.946 433.863 225.333 445.432C276.744 464.374 335.69 485.777 389.158 461.586C403.962 454.478 416.521 446.119 428.458 434.807C429.27 434.048 430.082 433.289 430.919 432.507C447.486 416.54 459.925 396.638 469.458 375.807C469.761 375.161 470.064 374.514 470.376 373.848C483.338 345.928 491.101 315.5 499.602 286.028C511.538 244.655 523.829 202.744 542.458 163.807C542.879 162.92 543.3 162.033 543.733 161.119C566.583 113.262 600.589 68.8662 652.175 50.5211C681.808 40.4933 681.808 40.4933 695.458 40.8073C692.545 43.7208 688.981 44.0149 685.083 44.9323C669.164 48.9214 654.343 55.0583 640.458 63.8073C639.423 64.4557 638.388 65.1041 637.321 65.7721C622.003 75.677 608.118 87.8616 597.439 102.694C596.241 104.192 595.87 104.577 595.87 104.577L594.415 106.56C594.415 106.56 591.95 110.004 590.021 112.495C559.942 153.196 543.499 203.183 531.603 251.854C530.864 254.873 530.116 257.888 529.366 260.904C526.836 271.093 524.339 281.289 521.869 291.493C504.765 362.077 504.765 362.077 489.458 393.807C489.042 394.673 488.627 395.539 488.198 396.431C468.775 436.335 436.758 471.308 394.181 486.378C328.008 508.417 259.083 478.136 199.583 450.12Z" fill="url(#paint4_radial_7_997)"/>
<path d="M217.395 487.382C213.373 485.086 209.325 482.84 205.272 480.599C200.447 477.93 195.633 475.243 190.84 472.514C187.475 470.605 184.095 468.723 180.71 466.849C179.521 466.19 179.521 466.19 178.309 465.516C145.832 447.616 107.627 435.225 70.4951 445.646C62.96 448.041 55.7384 450.373 49.085 454.724C47.9712 455.426 46.8575 456.127 45.71 456.849C44.72 456.519 43.73 456.189 42.71 455.849C70.0756 439.535 101.486 432.34 133.129 440.16C161.556 447.748 188.536 460.006 214.358 474.001C220.583 477.359 226.966 480.345 233.397 483.287C234.623 483.85 235.849 484.414 237.074 484.977C239.502 486.093 241.932 487.205 244.362 488.316C247.287 489.656 250.205 491.009 253.12 492.369C303.254 515.602 360.859 529.886 414.784 511.506C447.764 499.099 473.014 472.131 492.71 443.849C493.112 443.273 493.514 442.696 493.928 442.101C496.411 438.47 498.624 434.718 500.71 430.849C501.112 430.104 501.515 429.359 501.93 428.592C525.524 384.023 534.062 331.207 545.316 282.454C555.912 236.641 568.323 187.259 596.71 148.849C597.477 147.8 598.244 146.751 599.034 145.67C604.78 137.941 611.04 130.795 617.71 123.849C618.233 123.295 618.755 122.741 619.294 122.171C623.636 117.672 628.301 113.96 633.397 110.349C634.594 109.499 634.594 109.499 635.814 108.632C657.018 93.7051 685.223 80.981 711.71 81.8494C711.71 82.1794 711.71 82.5094 711.71 82.8494C710.463 83.0685 709.217 83.2877 707.933 83.5135C669.94 90.4714 638.181 110.224 615.71 141.849C582.242 190.693 569.916 250.788 558.845 307.864C550.254 352.139 541.149 397.729 519.71 437.849C519.095 439.008 518.48 440.167 517.847 441.361C503.331 467.718 482.096 493.124 457.71 510.849C457.181 511.239 456.652 511.628 456.106 512.029C382.037 565.903 287.839 527.803 217.395 487.382Z" fill="url(#paint5_radial_7_997)"/>
<path d="M1471.81 583.562C1461.41 583.562 1451.91 582.662 1443.31 580.862C1434.71 579.262 1426.91 576.962 1419.91 573.962C1412.91 570.962 1406.81 567.662 1401.61 564.062C1396.61 560.262 1392.51 556.362 1389.31 552.362C1387.11 549.562 1385.61 547.162 1384.81 545.162C1384.21 542.962 1384.31 540.862 1385.11 538.862C1386.11 536.662 1387.91 534.362 1390.51 531.962C1393.31 529.562 1395.91 528.362 1398.31 528.362C1400.71 528.162 1403.01 528.862 1405.21 530.462C1407.41 532.062 1409.81 534.262 1412.41 537.062C1418.21 543.862 1426.11 548.962 1436.11 552.362C1446.31 555.762 1458.01 557.462 1471.21 557.462C1482.61 557.462 1492.71 556.362 1501.51 554.162C1510.31 551.762 1517.21 548.162 1522.21 543.362C1527.41 538.362 1530.01 531.962 1530.01 524.162C1530.01 517.562 1528.11 512.062 1524.31 507.662C1520.51 503.262 1515.31 499.562 1508.71 496.562C1502.31 493.562 1495.11 490.962 1487.11 488.762C1479.11 486.562 1470.81 484.362 1462.21 482.162C1455.01 480.362 1447.91 478.362 1440.91 476.162C1433.91 473.962 1427.21 471.462 1420.81 468.662C1414.61 465.662 1409.11 462.162 1404.31 458.162C1399.51 454.162 1395.71 449.362 1392.91 443.762C1390.31 438.162 1389.01 431.662 1389.01 424.262C1389.01 412.662 1392.31 402.762 1398.91 394.562C1405.51 386.162 1414.51 379.762 1425.91 375.362C1437.51 370.762 1450.71 368.462 1465.51 368.462C1475.51 368.462 1484.61 369.262 1492.81 370.862C1501.21 372.262 1508.51 374.162 1514.71 376.562C1520.91 378.762 1526.11 381.062 1530.31 383.462C1534.71 385.862 1538.01 388.062 1540.21 390.062C1544.21 393.462 1546.51 396.462 1547.11 399.062C1547.71 401.662 1546.51 404.862 1543.51 408.662C1540.31 412.662 1537.21 414.862 1534.21 415.262C1531.41 415.662 1528.01 414.562 1524.01 411.962C1519.61 407.962 1514.61 404.762 1509.01 402.362C1503.41 399.762 1497.01 397.862 1489.81 396.662C1482.81 395.262 1474.81 394.562 1465.81 394.562C1458.81 394.562 1452.31 395.162 1446.31 396.362C1440.31 397.562 1435.01 399.362 1430.41 401.762C1426.01 404.162 1422.51 407.262 1419.91 411.062C1417.51 414.862 1416.31 419.362 1416.31 424.562C1416.31 429.962 1418.01 434.562 1421.41 438.362C1424.81 441.962 1429.41 445.062 1435.21 447.662C1441.21 450.062 1447.91 452.362 1455.31 454.562C1462.71 456.562 1470.41 458.562 1478.41 460.562C1487.81 462.762 1497.21 465.462 1506.61 468.662C1516.01 471.662 1524.51 475.462 1532.11 480.062C1539.71 484.662 1545.81 490.462 1550.41 497.462C1555.01 504.462 1557.31 513.062 1557.31 523.262C1557.31 533.062 1555.11 541.762 1550.71 549.362C1546.31 556.962 1540.11 563.362 1532.11 568.562C1524.31 573.562 1515.21 577.262 1504.81 579.662C1494.61 582.262 1483.61 583.562 1471.81 583.562ZM1758.07 582.962C1740.67 582.962 1724.67 580.362 1710.07 575.162C1695.67 569.962 1683.07 562.662 1672.27 553.262C1661.47 543.662 1653.07 532.462 1647.07 519.662C1641.27 506.862 1638.37 492.862 1638.37 477.662C1638.37 462.062 1641.27 447.662 1647.07 434.462C1652.87 421.262 1660.97 409.862 1671.37 400.262C1681.97 390.462 1694.37 382.862 1708.57 377.462C1722.77 372.062 1738.37 369.362 1755.37 369.362C1772.57 369.362 1788.47 372.062 1803.07 377.462C1817.67 382.662 1830.27 390.062 1840.87 399.662C1851.47 409.062 1859.67 420.362 1865.47 433.562C1871.47 446.562 1874.47 460.862 1874.47 476.462C1874.47 491.862 1871.57 506.062 1865.77 519.062C1859.97 531.862 1851.87 543.062 1841.47 552.662C1831.07 562.262 1818.77 569.762 1804.57 575.162C1790.37 580.362 1774.87 582.962 1758.07 582.962ZM1756.27 555.962C1769.67 555.962 1781.87 553.962 1792.87 549.962C1804.07 545.962 1813.67 540.462 1821.67 533.462C1829.87 526.262 1836.17 517.862 1840.57 508.262C1845.17 498.462 1847.47 487.762 1847.47 476.162C1847.47 464.762 1845.17 454.262 1840.57 444.662C1836.17 434.862 1829.87 426.362 1821.67 419.162C1813.47 411.962 1803.87 406.462 1792.87 402.662C1781.87 398.662 1769.77 396.662 1756.57 396.662C1743.37 396.662 1731.17 398.662 1719.97 402.662C1708.97 406.462 1699.37 411.962 1691.17 419.162C1682.97 426.162 1676.57 434.562 1671.97 444.362C1667.57 454.162 1665.37 464.862 1665.37 476.462C1665.37 487.862 1667.67 498.462 1672.27 508.262C1676.87 517.862 1683.17 526.262 1691.17 533.462C1699.37 540.662 1708.97 546.262 1719.97 550.262C1730.97 554.062 1743.07 555.962 1756.27 555.962ZM1974.58 580.862C1970.98 580.862 1968.18 580.262 1966.18 579.062C1964.38 577.862 1963.08 576.262 1962.28 574.262C1961.68 572.062 1961.38 569.562 1961.38 566.762V384.062C1961.38 381.462 1961.78 379.262 1962.58 377.462C1963.58 375.662 1965.08 374.262 1967.08 373.262C1969.28 372.062 1972.18 371.462 1975.78 371.462C1979.98 371.462 1982.98 371.862 1984.78 372.662C1986.78 373.462 1988.68 374.862 1990.48 376.862L2135.68 538.562V384.062C2135.68 381.462 2136.08 379.262 2136.88 377.462C2137.68 375.662 2139.08 374.262 2141.08 373.262C2143.08 372.062 2145.88 371.462 2149.48 371.462C2153.28 371.462 2156.08 372.062 2157.88 373.262C2159.88 374.462 2161.18 376.162 2161.78 378.362C2162.38 380.362 2162.68 382.662 2162.68 385.262V567.062C2162.68 569.662 2162.28 572.062 2161.48 574.262C2160.68 576.262 2159.18 577.862 2156.98 579.062C2154.78 580.262 2151.88 580.862 2148.28 580.862C2145.28 580.862 2142.68 580.462 2140.48 579.662C2138.28 578.862 2136.18 577.362 2134.18 575.162L1988.38 414.662V567.062C1988.38 569.662 1987.98 572.062 1987.18 574.262C1986.58 576.262 1985.28 577.862 1983.28 579.062C1981.28 580.262 1978.38 580.862 1974.58 580.862ZM2365.1 581.762C2348.3 581.762 2333.6 579.462 2321 574.862C2308.4 570.062 2297.8 563.362 2289.2 554.762C2280.8 546.162 2274.5 535.862 2270.3 523.862C2266.1 511.862 2264 498.662 2264 484.262V384.962C2264 382.362 2264.3 380.062 2264.9 378.062C2265.7 375.862 2267 374.262 2268.8 373.262C2270.8 372.062 2273.8 371.462 2277.8 371.462C2281.8 371.462 2284.7 372.062 2286.5 373.262C2288.5 374.262 2289.8 375.862 2290.4 378.062C2291.2 380.062 2291.6 382.462 2291.6 385.262V484.262C2291.6 498.262 2294.3 510.562 2299.7 521.162C2305.1 531.762 2313.3 540.062 2324.3 546.062C2335.3 551.862 2349.2 554.762 2366 554.762C2382.4 554.762 2396.1 551.862 2407.1 546.062C2418.1 540.262 2426.3 532.062 2431.7 521.462C2437.1 510.862 2439.8 498.362 2439.8 483.962V383.162C2439.8 380.962 2440.1 378.962 2440.7 377.162C2441.5 375.362 2442.9 373.962 2444.9 372.962C2446.9 371.962 2449.9 371.462 2453.9 371.462C2457.7 371.462 2460.5 372.062 2462.3 373.262C2464.3 374.462 2465.6 376.062 2466.2 378.062C2466.8 380.062 2467.1 382.462 2467.1 385.262V484.862C2467.1 499.262 2465 512.462 2460.8 524.462C2456.6 536.262 2450.2 546.462 2441.6 555.062C2433 563.662 2422.3 570.262 2409.5 574.862C2396.9 579.462 2382.1 581.762 2365.1 581.762ZM2647.26 583.562C2636.86 583.562 2627.36 582.662 2618.76 580.862C2610.16 579.262 2602.36 576.962 2595.36 573.962C2588.36 570.962 2582.26 567.662 2577.06 564.062C2572.06 560.262 2567.96 556.362 2564.76 552.362C2562.56 549.562 2561.06 547.162 2560.26 545.162C2559.66 542.962 2559.76 540.862 2560.56 538.862C2561.56 536.662 2563.36 534.362 2565.96 531.962C2568.76 529.562 2571.36 528.362 2573.76 528.362C2576.16 528.162 2578.46 528.862 2580.66 530.462C2582.86 532.062 2585.26 534.262 2587.86 537.062C2593.66 543.862 2601.56 548.962 2611.56 552.362C2621.76 555.762 2633.46 557.462 2646.66 557.462C2658.06 557.462 2668.16 556.362 2676.96 554.162C2685.76 551.762 2692.66 548.162 2697.66 543.362C2702.86 538.362 2705.46 531.962 2705.46 524.162C2705.46 517.562 2703.56 512.062 2699.76 507.662C2695.96 503.262 2690.76 499.562 2684.16 496.562C2677.76 493.562 2670.56 490.962 2662.56 488.762C2654.56 486.562 2646.26 484.362 2637.66 482.162C2630.46 480.362 2623.36 478.362 2616.36 476.162C2609.36 473.962 2602.66 471.462 2596.26 468.662C2590.06 465.662 2584.56 462.162 2579.76 458.162C2574.96 454.162 2571.16 449.362 2568.36 443.762C2565.76 438.162 2564.46 431.662 2564.46 424.262C2564.46 412.662 2567.76 402.762 2574.36 394.562C2580.96 386.162 2589.96 379.762 2601.36 375.362C2612.96 370.762 2626.16 368.462 2640.96 368.462C2650.96 368.462 2660.06 369.262 2668.26 370.862C2676.66 372.262 2683.96 374.162 2690.16 376.562C2696.36 378.762 2701.56 381.062 2705.76 383.462C2710.16 385.862 2713.46 388.062 2715.66 390.062C2719.66 393.462 2721.96 396.462 2722.56 399.062C2723.16 401.662 2721.96 404.862 2718.96 408.662C2715.76 412.662 2712.66 414.862 2709.66 415.262C2706.86 415.662 2703.46 414.562 2699.46 411.962C2695.06 407.962 2690.06 404.762 2684.46 402.362C2678.86 399.762 2672.46 397.862 2665.26 396.662C2658.26 395.262 2650.26 394.562 2641.26 394.562C2634.26 394.562 2627.76 395.162 2621.76 396.362C2615.76 397.562 2610.46 399.362 2605.86 401.762C2601.46 404.162 2597.96 407.262 2595.36 411.062C2592.96 414.862 2591.76 419.362 2591.76 424.562C2591.76 429.962 2593.46 434.562 2596.86 438.362C2600.26 441.962 2604.86 445.062 2610.66 447.662C2616.66 450.062 2623.36 452.362 2630.76 454.562C2638.16 456.562 2645.86 458.562 2653.86 460.562C2663.26 462.762 2672.66 465.462 2682.06 468.662C2691.46 471.662 2699.96 475.462 2707.56 480.062C2715.16 484.662 2721.26 490.462 2725.86 497.462C2730.46 504.462 2732.76 513.062 2732.76 523.262C2732.76 533.062 2730.56 541.762 2726.16 549.362C2721.76 556.962 2715.56 563.362 2707.56 568.562C2699.76 573.562 2690.66 577.262 2680.26 579.662C2670.06 582.262 2659.06 583.562 2647.26 583.562ZM2973.71 580.862C2969.71 580.862 2966.71 580.262 2964.71 579.062C2962.91 578.062 2961.71 576.562 2961.11 574.562C2960.51 572.362 2960.21 569.862 2960.21 567.062V384.962C2960.21 382.362 2960.61 380.062 2961.41 378.062C2962.21 376.062 2963.61 374.462 2965.61 373.262C2967.61 372.062 2970.41 371.462 2974.01 371.462H3067.91C3077.51 371.462 3086.51 372.962 3094.91 375.962C3103.51 378.762 3111.11 383.162 3117.71 389.162C3124.31 394.962 3129.51 402.062 3133.31 410.462C3137.31 418.862 3139.31 428.562 3139.31 439.562C3139.31 450.362 3137.31 459.962 3133.31 468.362C3129.51 476.762 3124.21 483.862 3117.41 489.662C3110.81 495.262 3103.21 499.562 3094.61 502.562C3086.21 505.562 3077.21 507.062 3067.61 507.062H2987.51V567.362C2987.51 570.162 2987.21 572.562 2986.61 574.562C2986.01 576.562 2984.71 578.062 2982.71 579.062C2980.71 580.262 2977.71 580.862 2973.71 580.862ZM2987.51 479.762H3067.91C3075.91 479.762 3083.21 478.262 3089.81 475.262C3096.61 472.062 3102.01 467.462 3106.01 461.462C3110.21 455.262 3112.31 447.762 3112.31 438.962C3112.31 430.562 3110.31 423.362 3106.31 417.362C3102.31 411.362 3096.91 406.762 3090.11 403.562C3083.51 400.362 3076.01 398.762 3067.61 398.762H2987.51V479.762ZM3245.54 580.862C3241.54 580.862 3238.54 580.262 3236.54 579.062C3234.74 578.062 3233.54 576.562 3232.94 574.562C3232.34 572.362 3232.04 569.862 3232.04 567.062V384.662C3232.04 382.062 3232.34 379.862 3232.94 378.062C3233.74 376.062 3235.14 374.462 3237.14 373.262C3239.14 372.062 3242.04 371.462 3245.84 371.462H3339.74C3349.54 371.462 3358.74 372.962 3367.34 375.962C3375.94 378.762 3383.54 382.962 3390.14 388.562C3396.74 394.162 3401.84 401.262 3405.44 409.862C3409.24 418.262 3411.14 428.062 3411.14 439.262C3411.14 446.262 3409.84 453.562 3407.24 461.162C3404.64 468.562 3400.74 475.562 3395.54 482.162C3390.54 488.762 3384.24 494.262 3376.64 498.662C3369.24 503.062 3360.64 505.562 3350.84 506.162H3259.04V567.362C3259.04 570.162 3258.74 572.562 3258.14 574.562C3257.54 576.562 3256.24 578.062 3254.24 579.062C3252.24 580.262 3249.34 580.862 3245.54 580.862ZM3406.34 577.562C3402.14 580.362 3398.64 581.262 3395.84 580.262C3393.04 579.262 3390.34 576.862 3387.74 573.062L3334.94 495.962L3364.64 491.762L3410.84 557.762C3412.84 560.762 3414.04 563.462 3414.44 565.862C3414.84 568.062 3414.34 570.062 3412.94 571.862C3411.74 573.662 3409.54 575.562 3406.34 577.562ZM3259.04 479.762H3346.34C3350.94 479.762 3355.44 478.962 3359.84 477.362C3364.24 475.562 3368.24 472.962 3371.84 469.562C3375.64 466.162 3378.64 461.962 3380.84 456.962C3383.04 451.962 3384.14 445.962 3384.14 438.962C3384.14 430.362 3382.14 423.062 3378.14 417.062C3374.34 411.062 3369.04 406.562 3362.24 403.562C3355.64 400.362 3347.94 398.762 3339.14 398.762H3259.04V479.762ZM3520.24 580.862C3516.24 580.862 3513.24 580.262 3511.24 579.062C3509.44 578.062 3508.24 576.562 3507.64 574.562C3507.04 572.362 3506.74 569.862 3506.74 567.062V384.962C3506.74 382.162 3507.04 379.762 3507.64 377.762C3508.44 375.762 3509.74 374.262 3511.54 373.262C3513.54 372.062 3516.54 371.462 3520.54 371.462C3524.54 371.462 3527.44 372.062 3529.24 373.262C3531.24 374.262 3532.44 375.762 3532.84 377.762C3533.44 379.762 3533.74 382.262 3533.74 385.262V567.362C3533.74 570.162 3533.44 572.562 3532.84 574.562C3532.24 576.562 3530.94 578.062 3528.94 579.062C3527.14 580.262 3524.24 580.862 3520.24 580.862ZM3645 580.862C3641.6 580.862 3638.9 580.262 3636.9 579.062C3634.9 577.862 3633.5 576.262 3632.7 574.262C3632.1 572.062 3631.8 569.662 3631.8 567.062V384.662C3631.8 382.062 3632.1 379.862 3632.7 378.062C3633.5 376.062 3634.9 374.462 3636.9 373.262C3638.9 372.062 3641.8 371.462 3645.6 371.462C3648.6 371.462 3650.9 371.662 3652.5 372.062C3654.3 372.462 3655.8 373.062 3657 373.862C3658.4 374.462 3659.6 375.462 3660.6 376.862L3755.4 493.262H3746.1L3841.5 375.962C3842.7 374.562 3843.9 373.562 3845.1 372.962C3846.5 372.362 3848.1 371.962 3849.9 371.762C3851.9 371.562 3854.1 371.462 3856.5 371.462C3860.3 371.462 3863.1 372.062 3864.9 373.262C3866.9 374.462 3868.2 376.162 3868.8 378.362C3869.6 380.362 3870 382.662 3870 385.262V567.662C3870 570.062 3869.6 572.262 3868.8 574.262C3868.2 576.262 3866.9 577.862 3864.9 579.062C3862.9 580.262 3860 580.862 3856.2 580.862C3852.6 580.862 3849.8 580.262 3847.8 579.062C3846 577.862 3844.7 576.262 3843.9 574.262C3843.3 572.062 3843 569.662 3843 567.062V414.062L3762.6 513.662C3761.8 514.462 3760.9 515.362 3759.9 516.362C3758.9 517.162 3757.6 517.962 3756 518.762C3754.6 519.362 3752.8 519.662 3750.6 519.662C3748.6 519.662 3746.9 519.362 3745.5 518.762C3744.1 517.962 3742.9 517.162 3741.9 516.362C3740.9 515.362 3739.9 514.262 3738.9 513.062L3658.8 414.362V567.662C3658.8 570.062 3658.4 572.262 3657.6 574.262C3657 576.262 3655.7 577.862 3653.7 579.062C3651.7 580.262 3648.8 580.862 3645 580.862ZM3983.06 580.862C3979.26 580.862 3976.36 580.262 3974.36 579.062C3972.36 578.062 3971.06 576.562 3970.46 574.562C3970.06 572.362 3969.86 569.862 3969.86 567.062V384.962C3969.86 379.762 3970.86 376.262 3972.86 374.462C3974.86 372.462 3978.56 371.462 3983.96 371.462H4136.96C4139.76 371.462 4142.16 371.762 4144.16 372.362C4146.16 372.962 4147.66 374.262 4148.66 376.262C4149.86 378.262 4150.46 381.262 4150.46 385.262C4150.46 389.262 4149.86 392.262 4148.66 394.262C4147.46 396.062 4145.86 397.262 4143.86 397.862C4141.86 398.462 4139.46 398.762 4136.66 398.762H3996.86V460.862H4103.96C4106.76 460.862 4109.06 461.162 4110.86 461.762C4112.86 462.362 4114.36 463.562 4115.36 465.362C4116.36 467.162 4116.86 469.962 4116.86 473.762C4116.86 477.362 4116.36 480.062 4115.36 481.862C4114.36 483.662 4112.86 484.862 4110.86 485.462C4108.86 485.862 4106.36 486.062 4103.36 486.062H3996.86V553.862H4136.96C4139.76 553.862 4142.16 554.162 4144.16 554.762C4146.16 555.362 4147.66 556.662 4148.66 558.662C4149.86 560.462 4150.46 563.362 4150.46 567.362C4150.46 571.362 4149.86 574.362 4148.66 576.362C4147.46 578.162 4145.86 579.362 4143.86 579.962C4141.86 580.562 4139.46 580.862 4136.66 580.862H3983.06Z" fill="url(#paint6_radial_7_997)"/>
<defs>
<radialGradient id="paint0_radial_7_997" cx="0" cy="0" r="1" gradientUnits="userSpaceOnUse" gradientTransform="translate(695.614 511.686) rotate(65.3561) scale(308.595 455.595)">
<stop stop-color="#F3F3F3"/>
<stop offset="1" stop-color="#A6A6A6"/>
</radialGradient>
<radialGradient id="paint1_radial_7_997" cx="0" cy="0" r="1" gradientUnits="userSpaceOnUse" gradientTransform="translate(658.023 468.311) rotate(60.2551) scale(279.756 415.4)">
<stop stop-color="#F3F3F3"/>
<stop offset="1" stop-color="#A6A6A6"/>
</radialGradient>
<radialGradient id="paint2_radial_7_997" cx="0" cy="0" r="1" gradientUnits="userSpaceOnUse" gradientTransform="translate(636.336 420.6) rotate(83.9725) scale(234.069 342.777)">
<stop stop-color="#F3F3F3"/>
<stop offset="1" stop-color="#A6A6A6"/>
</radialGradient>
<radialGradient id="paint3_radial_7_997" cx="0" cy="0" r="1" gradientUnits="userSpaceOnUse" gradientTransform="translate(371.951 423.038) rotate(-114.644) scale(308.595 455.595)">
<stop stop-color="#F3F3F3"/>
<stop offset="1" stop-color="#A6A6A6"/>
</radialGradient>
<radialGradient id="paint4_radial_7_997" cx="0" cy="0" r="1" gradientUnits="userSpaceOnUse" gradientTransform="translate(409.542 466.412) rotate(-119.745) scale(279.756 415.4)">
<stop stop-color="#F3F3F3"/>
<stop offset="1" stop-color="#A6A6A6"/>
</radialGradient>
<radialGradient id="paint5_radial_7_997" cx="0" cy="0" r="1" gradientUnits="userSpaceOnUse" gradientTransform="translate(431.229 514.124) rotate(-96.0275) scale(234.069 342.777)">
<stop stop-color="#F3F3F3"/>
<stop offset="1" stop-color="#A6A6A6"/>
</radialGradient>
<radialGradient id="paint6_radial_7_997" cx="0" cy="0" r="1" gradientUnits="userSpaceOnUse" gradientTransform="translate(2768.91 467.362) scale(1397 181.5)">
<stop stop-color="#F3F3F3"/>
<stop offset="1" stop-color="#A6A6A6"/>
</radialGradient>
</defs>
</svg>
